<svg id="visual" viewBox="0 0 1000 300" width="1000" height="300" xmlns="http://www.w3.org/2000/svg" xmlns:xlink="http://www.w3.org/1999/xlink" version="1.1"><path d="M0 144L18.5 143.2C37 142.3 74 140.7 111 142C148 143.3 185 147.7 222 146.8C259 146 296 140 333 140.3C370 140.7 407 147.3 444.2 154.7C481.3 162 518.7 170 555.8 178C593 186 630 194 667 193.2C704 192.3 741 182.7 778 173.8C815 165 852 157 889 150.8C926 144.7 963 140.3 981.5 138.2L1000 136L1000 301L981.5 301C963 301 926 301 889 301C852 301 815 301 778 301C741 301 704 301 667 301C630 301 593 301 555.8 301C518.7 301 481.3 301 444.2 301C407 301 370 301 333 301C296 301 259 301 222 301C185 301 148 301 111 301C74 301 37 301 18.5 301L0 301Z" fill="#fa7268"></path><path d="M0 223L18.5 218.2C37 213.3 74 203.7 111 194.7C148 185.7 185 177.3 222 177.7C259 178 296 187 333 184C370 181 407 166 444.2 168C481.3 170 518.7 189 555.8 192.2C593 195.3 630 182.7 667 176.8C704 171 741 172 778 172.5C815 173 852 173 889 176.2C926 179.3 963 185.7 981.5 188.8L1000 192L1000 301L981.5 301C963 301 926 301 889 301C852 301 815 301 778 301C741 301 704 301 667 301C630 301 593 301 555.8 301C518.7 301 481.3 301 444.2 301C407 301 370 301 333 301C296 301 259 301 222 301C185 301 148 301 111 301C74 301 37 301 18.5 301L0 301Z" fill="#f8685d"></path><path d="M0 230L18.5 230.2C37 230.3 74 230.7 111 223.7C148 216.7 185 202.3 222 196.8C259 191.3 296 194.7 333 203.8C370 213 407 228 444.2 225.7C481.3 223.3 518.7 203.7 555.8 197.5C593 191.3 630 198.7 667 205C704 211.3 741 216.7 778 220C815 223.3 852 224.7 889 226.2C926 227.7 963 229.3 981.5 230.2L1000 231L1000 301L981.5 301C963 301 926 301 889 301C852 301 815 301 778 301C741 301 704 301 667 301C630 301 593 301 555.8 301C518.7 301 481.3 301 444.2 301C407 301 370 301 333 301C296 301 259 301 222 301C185 301 148 301 111 301C74 301 37 301 18.5 301L0 301Z" fill="#f55e52"></path><path d="M0 265L18.5 262.8C37 260.7 74 256.3 111 256.5C148 256.7 185 261.3 222 254.8C259 248.3 296 230.7 333 227.2C370 223.7 407 234.3 444.2 235C481.3 235.7 518.7 226.3 555.8 221.2C593 216 630 215 667 220.3C704 225.7 741 237.3 778 245.8C815 254.3 852 259.7 889 259.7C926 259.7 963 254.3 981.5 251.7L1000 249L1000 301L981.5 301C963 301 926 301 889 301C852 301 815 301 778 301C741 301 704 301 667 301C630 301 593 301 555.8 301C518.7 301 481.3 301 444.2 301C407 301 370 301 333 301C296 301 259 301 222 301C185 301 148 301 111 301C74 301 37 301 18.5 301L0 301Z" fill="#f25347"></path><path d="M0 283L18.5 282.2C37 281.3 74 279.7 111 275.8C148 272 185 266 222 260.5C259 255 296 250 333 252.5C370 255 407 265 444.2 270C481.3 275 518.7 275 555.8 274.8C593 274.7 630 274.3 667 269.2C704 264 741 254 778 250.3C815 246.7 852 249.3 889 253.3C926 257.3 963 262.7 981.5 265.3L1000 268L1000 301L981.5 301C963 301 926 301 889 301C852 301 815 301 778 301C741 301 704 301 667 301C630 301 593 301 555.8 301C518.7 301 481.3 301 444.2 301C407 301 370 301 333 301C296 301 259 301 222 301C185 301 148 301 111 301C74 301 37 301 18.5 301L0 301Z" fill="#ef483c"></path></svg>