<?xml version="1.0" encoding="utf-8"?>
<svg viewBox="305.881 90.223 19.995 17.745" xmlns="http://www.w3.org/2000/svg">
  <path d="M 20.16 5 C 17.97 2.804 14.506 2.532 12 4.36 C 8.127 1.479 2.588 3.872 2.03 8.666 C 1.808 10.577 2.475 12.484 3.84 13.84 L 10.05 20.06 C 11.132 21.125 12.868 21.125 13.95 20.06 L 20.16 13.84 C 22.591 11.395 22.591 7.445 20.16 5 Z M 18.978 12.764 L 12.54 18.67 C 12.243 18.97 11.757 18.97 11.46 18.67 L 5.25 12.43 C 3.619 10.763 11.275 20.821 12.906 19.154 C 14.569 17.512 18.343 11.956 20.006 13.598 C 20.397 13.992 14.065 7.926 14.456 7.532 C 16.119 5.89 12.524 7.409 14.187 9.051 C 15.841 10.697 16.37 8.195 14.761 9.884 L 18.978 12.764 Z" transform="matrix(1, 0, 0, 1, 303.892914, 87.109314)" style="fill-rule: nonzero; paint-order: fill; fill: rgb(255, 0, 0);"/>
</svg>