<svg id="visual" viewBox="0 0 960 300" width="960" height="300" xmlns="http://www.w3.org/2000/svg" xmlns:xlink="http://www.w3.org/1999/xlink" version="1.1"><rect x="0" y="0" width="960" height="300" fill="#502299"></rect><path d="M0 122L96 66L192 86L288 94L384 99L480 121L576 106L672 106L768 69L864 119L960 67L960 301L864 301L768 301L672 301L576 301L480 301L384 301L288 301L192 301L96 301L0 301Z" fill="#532e8d"></path><path d="M0 156L96 124L192 132L288 149L384 100L480 137L576 102L672 140L768 139L864 117L960 115L960 301L864 301L768 301L672 301L576 301L480 301L384 301L288 301L192 301L96 301L0 301Z" fill="#583195"></path><path d="M0 155L96 164L192 192L288 163L384 191L480 164L576 168L672 184L768 147L864 165L960 150L960 301L864 301L768 301L672 301L576 301L480 301L384 301L288 301L192 301L96 301L0 301Z" fill="#5d349e"></path><path d="M0 195L96 188L192 195L288 206L384 194L480 233L576 211L672 206L768 196L864 214L960 224L960 301L864 301L768 301L672 301L576 301L480 301L384 301L288 301L192 301L96 301L0 301Z" fill="#6237a7"></path><path d="M0 251L96 258L192 267L288 258L384 267L480 247L576 230L672 240L768 241L864 232L960 254L960 301L864 301L768 301L672 301L576 301L480 301L384 301L288 301L192 301L96 301L0 301Z" fill="#683ab0"></path></svg>