<svg id="visual" viewBox="0 0 1000 400" width="1000" height="400" xmlns="http://www.w3.org/2000/svg" xmlns:xlink="http://www.w3.org/1999/xlink" version="1.1"><path d="M0 53L91 69L182 25L273 45L364 69L455 29L545 49L636 69L727 49L818 45L909 33L1000 69L1000 0L909 0L818 0L727 0L636 0L545 0L455 0L364 0L273 0L182 0L91 0L0 0Z" fill="#2ca58d"></path><path d="M0 149L91 121L182 117L273 113L364 153L455 73L545 117L636 157L727 97L818 125L909 85L1000 149L1000 67L909 31L818 43L727 47L636 67L545 47L455 27L364 67L273 43L182 23L91 67L0 51Z" fill="#1fa081"></path><path d="M0 253L91 185L182 189L273 197L364 241L455 249L545 217L636 253L727 169L818 197L909 257L1000 205L1000 147L909 83L818 123L727 95L636 155L545 115L455 71L364 151L273 111L182 115L91 119L0 147Z" fill="#139a75"></path><path d="M0 349L91 349L182 341L273 345L364 337L455 373L545 349L636 365L727 349L818 365L909 353L1000 349L1000 203L909 255L818 195L727 167L636 251L545 215L455 247L364 239L273 195L182 187L91 183L0 251Z" fill="#079568"></path><path d="M0 401L91 401L182 401L273 401L364 401L455 401L545 401L636 401L727 401L818 401L909 401L1000 401L1000 347L909 351L818 363L727 347L636 363L545 347L455 371L364 335L273 343L182 339L91 347L0 347Z" fill="#008f5b"></path></svg>