<svg id="visual" viewBox="0 0 900 900" width="900" height="900" xmlns="http://www.w3.org/2000/svg" xmlns:xlink="http://www.w3.org/1999/xlink" version="1.1"><path d="M0 307L82 253L164 172L245 226L327 226L409 271L491 343L573 217L655 136L736 343L818 244L900 397L900 0L818 0L736 0L655 0L573 0L491 0L409 0L327 0L245 0L164 0L82 0L0 0Z" fill="#2ca58d"></path><path d="M0 433L82 379L164 289L245 325L327 343L409 388L491 496L573 334L655 235L736 397L818 379L900 514L900 395L818 242L736 341L655 134L573 215L491 341L409 269L327 224L245 224L164 170L82 251L0 305Z" fill="#1fa081"></path><path d="M0 577L82 595L164 640L245 622L327 631L409 577L491 649L573 631L655 586L736 604L818 595L900 667L900 512L818 377L736 395L655 233L573 332L491 494L409 386L327 341L245 323L164 287L82 377L0 431Z" fill="#139a75"></path><path d="M0 793L82 802L164 829L245 712L327 838L409 757L491 829L573 793L655 838L736 730L818 829L900 811L900 665L818 593L736 602L655 584L573 629L491 647L409 575L327 629L245 620L164 638L82 593L0 575Z" fill="#079568"></path><path d="M0 901L82 901L164 901L245 901L327 901L409 901L491 901L573 901L655 901L736 901L818 901L900 901L900 809L818 827L736 728L655 836L573 791L491 827L409 755L327 836L245 710L164 827L82 800L0 791Z" fill="#008f5b"></path></svg>