<svg id="Layer_1" data-name="Layer 1" xmlns="http://www.w3.org/2000/svg" width="298" height="443.3752" viewBox="0 0 298 443.3752">
  <defs>
    <style>
      .cls-1, .cls-2, .cls-3 {
        stroke-miterlimit: 10;
      }

      .cls-2 {
        stroke-width: 4px;
      }

      .cls-3 {
        stroke-width: 14px;
      }
    </style>
  </defs>
  <path class="cls-1" d="M1961.4671,2167.8809v85.2878q0,12.979,10.11,23.0528,10.1033,10.0777,28.6991,15.5607,18.5832,5.4828,42.7813,5.4789,24.1791,0,42.7812-5.4789,18.5832-5.4951,28.6992-15.45,10.1034-9.9591,10.11-23.1632v-85.2878Z" transform="translate(-1893.6471 -1854.3859)"/>
  <polygon class="cls-2" points="250.57 2 149.005 122.193 47.43 2 2 2 2 184.04 49.337 184.04 49.337 73.022 132.114 170.747 165.886 170.747 248.663 70.6 248.663 184.04 296 184.04 296 2 250.57 2"/>
  <polygon class="cls-3" points="81.5 224.892 116.148 259.54 103.975 271.714 81.5 249.239 59.025 271.714 46.852 259.54 81.5 224.892"/>
  <polygon class="cls-3" points="216.5 224.892 251.148 259.54 238.975 271.714 216.5 249.239 194.025 271.714 181.852 259.54 216.5 224.892"/>
</svg>