<svg id="Layer_1" data-name="Layer 1" xmlns="http://www.w3.org/2000/svg" width="941.0889" height="215.4023" viewBox="0 0 941.0889 215.4023">
  <path fill="#000000" d="M1642.6743,2023.8671l-39.3-71.7006h-31.2v71.7006h-42.6006v-200.102h93.6011c41.7,0,67.2007,27.3,67.2007,64.5,0,35.4-22.2,54.3008-43.8008,59.4009l45,76.2006Zm-25.8-163.5014h-44.7v55.2h44.7c17.1,0,30-10.8,30-27.6S1633.9741,1860.3657,1616.874,1860.3657Z" transform="translate(-1529.5732 -1812.0649)"/>
  <path fill="#000000" d="M1768.0713,1875.3657c43.2,0,72.6005,32.4,72.6005,79.8008v8.4H1732.9707c2.4,18.3,17.1,33.6005,41.7,33.6005,13.5,0,29.4-5.4,38.7007-14.4l16.8,24.6005c-14.7,13.5-37.2006,20.1-59.7006,20.1-44.1006,0-77.4009-29.7-77.4009-76.2006C1693.07,1909.2661,1723.9707,1875.3657,1768.0713,1875.3657Zm-35.7007,62.4h71.4009c-.9-13.8-10.5-32.1-35.7-32.1C1744.3706,1905.666,1734.1709,1923.3662,1732.3706,1937.7661Z" transform="translate(-1529.5732 -1812.0649)"/>
  <path fill="#000000" d="M1983.77,1860.7661m92.4014,9.4v153.7011h-38.4V1902.3662l-51.6006-6.3v127.8007h-38.4V1891.3662l-51.6006-6v138.5009h-38.1V1837.9658h38.1v10.9Z" transform="translate(-1529.5732 -1812.0649)"/>
  <path fill="#000000" d="M2099.5654,1834.8652a22.8,22.8,0,1,1,22.8008,22.8A22.9254,22.9254,0,0,1,2099.5654,1834.8652Zm3.9,189.0019V1878.9658h38.1006v144.9013Z" transform="translate(-1529.5732 -1812.0649)"/>
  <path fill="#000000" d="M2266.9638,2023.8671v-87.601c0-20.1-10.5-27-26.7-27-15,0-26.7,8.4-33,17.1v97.5009h-38.1005V1878.9658h38.1005v18.9c9.3-11.1,27-22.5,50.7-22.5,31.8,0,47.1006,18,47.1006,46.2v102.3012Z" transform="translate(-1529.5732 -1812.0649)"/>
  <path fill="#000000" d="M2432.2617,2023.8671v-18.3c-11.3994,14.1-27.3,21.9-44.7,21.9-36.6006,0-64.2-27.6-64.2-75.9008,0-47.4,27.3-76.2007,64.2-76.2007,17.1006,0,33.3008,7.5,44.7,22.2v-73.8008h38.4v200.102Zm0-98.101c-6.6-9.6-20.1-16.5-33-16.5-21.6006,0-36.6006,17.1-36.6006,42.3,0,24.9,15,42,36.6006,42,12.9,0,26.4-6.9,33-16.5Z" transform="translate(-1529.5732 -1812.0649)"/>
</svg>